<svg xmlns="http://www.w3.org/2000/svg" id="statistic_icon" viewBox="0 0 16 16" width="18" height="18">
  <path fill-rule="evenodd" clip-rule="evenodd" d="M2 7C2 8.32608 2.52678 9.59785 3.46447 10.5355C4.40215 11.4732 5.67392 12 7 12C7.98768 12 8.94522 11.7078 9.75705 11.1712L12.293 13.7071C12.6835 14.0976 13.3167 14.0976 13.7072 13.7071C14.0977 13.3166 14.0977 12.6834 13.7072 12.2929L11.1712 9.75697C11.7078 8.94517 12 7.98765 12 7C12 5.67392 11.4732 4.40215 10.5355 3.46447C9.59785 2.52678 8.32608 2 7 2C5.67392 2 4.40215 2.52678 3.46447 3.46447C2.52678 4.40215 2 5.67392 2 7ZM4.87868 9.12132C4.31607 8.55871 4 7.79565 4 7C4 6.20435 4.31607 5.44129 4.87868 4.87868C5.44129 4.31607 6.20435 4 7 4C7.79565 4 8.55871 4.31607 9.12132 4.87868C9.68393 5.44129 10 6.20435 10 7C10 7.79565 9.68393 8.55871 9.12132 9.12132C8.55871 9.68393 7.79565 10 7 10C6.20435 10 5.44129 9.68393 4.87868 9.12132Z" fill="white"></path>  
</svg>